<?xml version="1.0" encoding="UTF-8" standalone="no"?>
<svg
   xmlns:dc="http://purl.org/dc/elements/1.1/"
   xmlns:cc="http://creativecommons.org/ns#"
   xmlns:rdf="http://www.w3.org/1999/02/22-rdf-syntax-ns#"
   xmlns:svg="http://www.w3.org/2000/svg"
   xmlns="http://www.w3.org/2000/svg"
   height="119.80275"
   width="310"
   id="svg903"
   version="1.1"
   viewBox="0 0 310 119.80275">
  <metadata
     id="metadata909">
    <rdf:RDF>
      <cc:Work
         rdf:about="">
        <dc:format>image/svg+xml</dc:format>
        <dc:type
           rdf:resource="http://purl.org/dc/dcmitype/StillImage" />
        <dc:title>1</dc:title>
      </cc:Work>
    </rdf:RDF>
  </metadata>
  <defs
     id="defs907" />
  <title
     id="title882">1</title>
  <g
     transform="matrix(2.9886432,0,0,2.9886432,-64.665273,-29.75792)"
     id="logos">
    <path
       id="path884"
       style="fill:#00284b"
       d="M 66.55,32.3 V 35 h -2.08 v -8.89 h 3.85 a 3.37,3.37 0 0 1 1.29,0.24 3,3 0 0 1 1,0.64 3,3 0 0 1 0.67,1 3.2,3.2 0 0 1 0.24,1.25 3.39,3.39 0 0 1 -0.23,1.25 2.88,2.88 0 0 1 -0.66,1 3,3 0 0 1 -1,0.64 3.6,3.6 0 0 1 -1.29,0.22 z m 1.68,-1.78 a 1.17,1.17 0 0 0 0.87,-0.38 1.17,1.17 0 0 0 0.27,-0.41 1.49,1.49 0 0 0 0,-1 1.32,1.32 0 0 0 -0.27,-0.42 1.24,1.24 0 0 0 -0.39,-0.29 1.06,1.06 0 0 0 -0.48,-0.1 h -1.68 v 2.62 z" />
    <path
       id="path886"
       style="fill:#00284b"
       d="m 80.24,26.11 h 2.08 v 5.48 A 3.74,3.74 0 0 1 82,33.06 3.42,3.42 0 0 1 81.21,34.22 3.65,3.65 0 0 1 80,35 a 4.93,4.93 0 0 1 -3.16,0 3.62,3.62 0 0 1 -1.25,-0.73 3.43,3.43 0 0 1 -0.83,-1.15 3.73,3.73 0 0 1 -0.3,-1.53 v -5.48 h 2.07 v 5.49 a 2.27,2.27 0 0 0 0.12,0.75 1.62,1.62 0 0 0 0.36,0.59 1.49,1.49 0 0 0 0.58,0.39 2,2 0 0 0 0.79,0.15 2.05,2.05 0 0 0 0.78,-0.14 1.72,1.72 0 0 0 0.58,-0.4 1.54,1.54 0 0 0 0.36,-0.59 2.25,2.25 0 0 0 0.12,-0.74 z" />
    <path
       id="path888"
       style="fill:#00284b"
       d="M 89.35,32.13 H 88 V 35 h -2.06 v -8.89 h 3.92 a 3.84,3.84 0 0 1 1.29,0.22 3.28,3.28 0 0 1 1,0.62 2.78,2.78 0 0 1 0.67,0.95 3.07,3.07 0 0 1 0.24,1.23 A 3.19,3.19 0 0 1 93,30 a 3.07,3.07 0 0 1 -0.33,0.76 2.54,2.54 0 0 1 -0.53,0.6 2.46,2.46 0 0 1 -0.69,0.44 L 93.3,35 h -2.39 z m 0.42,-1.78 a 1.28,1.28 0 0 0 0.48,-0.09 1.14,1.14 0 0 0 0.39,-0.25 1,1 0 0 0 0.26,-0.38 1.15,1.15 0 0 0 0.1,-0.5 1.13,1.13 0 0 0 -0.1,-0.49 1.2,1.2 0 0 0 -0.65,-0.65 1.28,1.28 0 0 0 -0.48,-0.09 H 88 v 2.45 z" />
    <path
       id="path890"
       style="fill:#00284b"
       d="m 96.39,32.58 0.65,0.28 a 8.11,8.11 0 0 0 0.79,0.28 7.73,7.73 0 0 0 0.86,0.22 4.14,4.14 0 0 0 0.84,0.09 3.33,3.33 0 0 0 0.76,-0.07 1.39,1.39 0 0 0 0.49,-0.21 0.84,0.84 0 0 0 0.28,-0.32 1.16,1.16 0 0 0 0.08,-0.42 A 0.72,0.72 0 0 0 101,32 1.43,1.43 0 0 0 100.58,31.69 4.09,4.09 0 0 0 99.91,31.43 L 99,31.16 98.44,31 a 5.53,5.53 0 0 1 -0.65,-0.22 5.38,5.38 0 0 1 -0.64,-0.31 2.93,2.93 0 0 1 -0.56,-0.42 2,2 0 0 1 -0.39,-0.56 1.7,1.7 0 0 1 -0.15,-0.73 3.06,3.06 0 0 1 0.22,-1.2 2.21,2.21 0 0 1 0.66,-0.91 3,3 0 0 1 1.15,-0.57 6.11,6.11 0 0 1 1.65,-0.2 5.65,5.65 0 0 1 0.93,0.07 7,7 0 0 1 0.87,0.19 8.33,8.33 0 0 1 0.8,0.27 l 0.73,0.29 -0.56,1.73 -0.32,-0.14 -0.45,-0.16 -0.53,-0.13 -0.57,-0.14 c -0.2,0 -0.39,-0.08 -0.57,-0.1 a 3.28,3.28 0 0 0 -0.52,0 2.75,2.75 0 0 0 -0.7,0.07 1.15,1.15 0 0 0 -0.43,0.2 0.72,0.72 0 0 0 -0.22,0.28 0.91,0.91 0 0 0 -0.06,0.32 0.57,0.57 0 0 0 0.15,0.4 1.25,1.25 0 0 0 0.4,0.29 2.73,2.73 0 0 0 0.61,0.2 c 0.23,0.06 0.48,0.11 0.75,0.16 0.46,0.12 0.89,0.24 1.29,0.38 a 3.76,3.76 0 0 1 1,0.52 2.32,2.32 0 0 1 0.66,0.8 2.66,2.66 0 0 1 0.24,1.19 2.41,2.41 0 0 1 -0.29,1.19 2.69,2.69 0 0 1 -0.81,0.87 4,4 0 0 1 -1.23,0.53 6.68,6.68 0 0 1 -1.52,0.17 7.13,7.13 0 0 1 -1.16,-0.08 6.62,6.62 0 0 1 -1,-0.21 6.7,6.7 0 0 1 -0.83,-0.28 l -0.67,-0.31 z" />
    <path
       id="path892"
       style="fill:#00284b"
       d="m 106.62,26.11 h 6.28 v 1.8 h -4.2 v 1.82 h 3.61 v 1.79 h -3.61 v 1.74 H 113 V 35 h -6.34 z" />
    <path
       id="path894"
       style="fill:#00284b"
       d="m 119.74,32.13 h -1.32 V 35 h -2.08 v -8.89 h 3.91 a 3.79,3.79 0 0 1 1.29,0.22 3.06,3.06 0 0 1 1,0.62 2.78,2.78 0 0 1 0.67,0.95 3.07,3.07 0 0 1 0.24,1.23 3.19,3.19 0 0 1 -0.12,0.89 3.07,3.07 0 0 1 -0.33,0.76 2.54,2.54 0 0 1 -0.53,0.6 2.46,2.46 0 0 1 -0.69,0.44 l 1.91,3.18 h -2.39 z m 0.42,-1.78 a 1.28,1.28 0 0 0 0.48,-0.09 1.14,1.14 0 0 0 0.36,-0.26 1.19,1.19 0 0 0 0.27,-0.38 1.31,1.31 0 0 0 0.09,-0.5 1.3,1.3 0 0 0 -0.09,-0.49 1.36,1.36 0 0 0 -0.27,-0.39 1.16,1.16 0 0 0 -0.39,-0.26 1.28,1.28 0 0 0 -0.48,-0.09 h -1.74 v 2.45 z" />
    <path
       id="path896"
       style="fill:#19a582"
       d="M 51,36.08 V 48.37 H 23.31 V 35.12 c 0,-6.67 6.19,-12.86 13.82,-12.86 A 13.82,13.82 0 0 1 51,36.08 Z" />
    <polygon
       id="polygon898"
       style="fill:#19a582"
       points="37.13,20.76 28,11.63 46.27,11.63 " />
    <circle
       id="circle900"
       style="fill:#ffffff"
       r="5.2399998"
       cy="35.32"
       cx="37.130001" />
  </g>
</svg>
