<svg xmlns="http://www.w3.org/2000/svg" viewBox="0 0 147 60"><title>1</title><g id="logos"><path d="M66.55,32.3V35H64.47V26.11h3.85a3.37,3.37,0,0,1,1.29.24,3,3,0,0,1,1,.64,3,3,0,0,1,.67,1,3.2,3.2,0,0,1,.24,1.25,3.39,3.39,0,0,1-.23,1.25,2.88,2.88,0,0,1-.66,1,3,3,0,0,1-1,.64,3.6,3.6,0,0,1-1.29.22Zm1.68-1.78a1.17,1.17,0,0,0,.87-.38,1.17,1.17,0,0,0,.27-.41,1.49,1.49,0,0,0,0-1,1.32,1.32,0,0,0-.27-.42,1.24,1.24,0,0,0-.39-.29,1.06,1.06,0,0,0-.48-.1H66.55v2.62Z" style="fill:#00284b"/><path d="M80.24,26.11h2.08v5.48A3.74,3.74,0,0,1,82,33.06a3.42,3.42,0,0,1-.79,1.16A3.65,3.65,0,0,1,80,35a4.93,4.93,0,0,1-3.16,0,3.62,3.62,0,0,1-1.25-.73,3.43,3.43,0,0,1-.83-1.15,3.73,3.73,0,0,1-.3-1.53V26.11h2.07V31.6a2.27,2.27,0,0,0,.12.75,1.62,1.62,0,0,0,.36.59,1.49,1.49,0,0,0,.58.39,2,2,0,0,0,.79.15,2.05,2.05,0,0,0,.78-.14,1.72,1.72,0,0,0,.58-.4,1.54,1.54,0,0,0,.36-.59,2.25,2.25,0,0,0,.12-.74Z" style="fill:#00284b"/><path d="M89.35,32.13H88V35H85.94V26.11h3.92a3.84,3.84,0,0,1,1.29.22,3.28,3.28,0,0,1,1,.62,2.78,2.78,0,0,1,.67.95,3.07,3.07,0,0,1,.24,1.23A3.19,3.19,0,0,1,93,30a3.07,3.07,0,0,1-.33.76,2.54,2.54,0,0,1-.53.6,2.46,2.46,0,0,1-.69.44L93.3,35H90.91Zm.42-1.78a1.28,1.28,0,0,0,.48-.09,1.14,1.14,0,0,0,.39-.25,1,1,0,0,0,.26-.38,1.15,1.15,0,0,0,.1-.5,1.13,1.13,0,0,0-.1-.49,1.2,1.2,0,0,0-.65-.65,1.28,1.28,0,0,0-.48-.09H88v2.45Z" style="fill:#00284b"/><path d="M96.39,32.58l.65.28a8.11,8.11,0,0,0,.79.28,7.73,7.73,0,0,0,.86.22,4.14,4.14,0,0,0,.84.09,3.33,3.33,0,0,0,.76-.07,1.39,1.39,0,0,0,.49-.21.84.84,0,0,0,.28-.32,1.16,1.16,0,0,0,.08-.42A.72.72,0,0,0,101,32a1.43,1.43,0,0,0-.42-.31,4.09,4.09,0,0,0-.67-.26L99,31.16,98.44,31a5.53,5.53,0,0,1-.65-.22,5.38,5.38,0,0,1-.64-.31,2.93,2.93,0,0,1-.56-.42,2,2,0,0,1-.39-.56,1.7,1.7,0,0,1-.15-.73,3.06,3.06,0,0,1,.22-1.2,2.21,2.21,0,0,1,.66-.91,3,3,0,0,1,1.15-.57,6.11,6.11,0,0,1,1.65-.2,5.65,5.65,0,0,1,.93.07,7,7,0,0,1,.87.19,8.33,8.33,0,0,1,.8.27l.73.29-.56,1.73-.32-.14-.45-.16L101.2,28l-.57-.14c-.2,0-.39-.08-.57-.1a3.28,3.28,0,0,0-.52,0,2.75,2.75,0,0,0-.7.07,1.15,1.15,0,0,0-.43.2.72.72,0,0,0-.22.28.91.91,0,0,0-.06.32.57.57,0,0,0,.15.4,1.25,1.25,0,0,0,.4.29,2.73,2.73,0,0,0,.61.2c.23.06.48.11.75.16.46.12.89.24,1.29.38a3.76,3.76,0,0,1,1,.52,2.32,2.32,0,0,1,.66.8,2.66,2.66,0,0,1,.24,1.19,2.41,2.41,0,0,1-.29,1.19,2.69,2.69,0,0,1-.81.87,4,4,0,0,1-1.23.53,6.68,6.68,0,0,1-1.52.17,7.13,7.13,0,0,1-1.16-.08,6.62,6.62,0,0,1-1-.21,6.7,6.7,0,0,1-.83-.28l-.67-.31Z" style="fill:#00284b"/><path d="M106.62,26.11h6.28v1.8h-4.2v1.82h3.61v1.79H108.7v1.74H113V35h-6.34Z" style="fill:#00284b"/><path d="M119.74,32.13h-1.32V35h-2.08V26.11h3.91a3.79,3.79,0,0,1,1.29.22,3.06,3.06,0,0,1,1,.62,2.78,2.78,0,0,1,.67.95,3.07,3.07,0,0,1,.24,1.23,3.19,3.19,0,0,1-.12.89,3.07,3.07,0,0,1-.33.76,2.54,2.54,0,0,1-.53.6,2.46,2.46,0,0,1-.69.44L123.69,35H121.3Zm.42-1.78a1.28,1.28,0,0,0,.48-.09A1.14,1.14,0,0,0,121,30a1.19,1.19,0,0,0,.27-.38,1.31,1.31,0,0,0,.09-.5,1.3,1.3,0,0,0-.09-.49,1.36,1.36,0,0,0-.27-.39,1.16,1.16,0,0,0-.39-.26,1.28,1.28,0,0,0-.48-.09h-1.74v2.45Z" style="fill:#00284b"/><path d="M51,36.08V48.37H23.31V35.12c0-6.67,6.19-12.86,13.82-12.86A13.82,13.82,0,0,1,51,36.08Z" style="fill:#19a582"/><polygon points="46.27 11.63 37.13 20.76 28 11.63 46.27 11.63" style="fill:#19a582"/><circle cx="37.13" cy="35.32" r="5.24" style="fill:#fff"/></g></svg>