<?xml version="1.0" encoding="utf-8"?>
<!-- Generator: Adobe Illustrator 23.0.2, SVG Export Plug-In . SVG Version: 6.00 Build 0)  -->
<svg version="1.1" id="Layer_1" xmlns="http://www.w3.org/2000/svg" xmlns:xlink="http://www.w3.org/1999/xlink" x="0px" y="0px"
	 viewBox="0 0 85.5 113.6" style="enable-background:new 0 0 85.5 113.6;" xml:space="preserve">
<style type="text/css">
	.st0{fill:#19A582;}
</style>
<title>logo_</title>
<g id="logos">
	<path class="st0" d="M42.7,32.9C19.1,32.9,0,52,0,72.7v41h85.5v-38C85.5,52,66.4,32.9,42.7,32.9C42.8,32.9,42.7,32.9,42.7,32.9z
		 M42.7,89.5c-9,0-16.2-7.3-16.2-16.3c0-9,7.3-16.2,16.3-16.2c8.9,0,16.2,7.3,16.2,16.2C59,82.2,51.7,89.5,42.7,89.5
		C42.8,89.5,42.8,89.5,42.7,89.5z"/>
	<polygon class="st0" points="71,0 42.8,28.2 14.5,0 	"/>
</g>
</svg>
